<svg width="48" height="48" viewBox="0 0 48 48" fill="none" xmlns="http://www.w3.org/2000/svg">
  <path d="M16.4999 4.5V10.5" stroke="#1777E5" stroke-width="3" stroke-linecap="round" stroke-linejoin="round"></path>
  <path d="M22.5 4.5V10.5" stroke="#1777E5" stroke-width="3" stroke-linecap="round" stroke-linejoin="round"></path>
  <path d="M28.5001 4.5V10.5" stroke="#1777E5" stroke-width="3" stroke-linecap="round" stroke-linejoin="round"></path>
  <path d="M6.00012 40.5H39.0001" stroke="#1777E5" stroke-width="3" stroke-linecap="round" stroke-linejoin="round"></path>
  <path d="M15.6189 40.4998C12.748 39.1824 10.3156 37.0688 8.61053 34.4098C6.90548 31.7509 5.99947 28.6584 6.00012 25.4998V16.4998H39.0001V25.4998C39.0008 28.6584 38.0948 31.7509 36.3897 34.4098C34.6847 37.0688 32.2522 39.1824 29.3814 40.4998" stroke="#1777E5" stroke-width="3" stroke-linecap="round" stroke-linejoin="round"></path>
  <path d="M39.0002 16.4998C40.5915 16.4998 42.1176 17.1319 43.2428 18.2571C44.368 19.3823 45.0002 20.9085 45.0002 22.4998V23.9998C45.0002 25.5911 44.368 27.1172 43.2428 28.2424C42.1176 29.3676 40.5915 29.9998 39.0002 29.9998H38.3627" stroke="#1777E5" stroke-width="3" stroke-linecap="round" stroke-linejoin="round"></path>
</svg>