<svg width="48" height="48" viewBox="0 0 48 48" fill="none" xmlns="http://www.w3.org/2000/svg">
  <path d="M24 42C33.9411 42 42 33.9411 42 24C42 14.0589 33.9411 6 24 6C14.0589 6 6 14.0589 6 24C6 33.9411 14.0589 42 24 42Z" stroke="#1777E5" stroke-width="3" stroke-linecap="round" stroke-linejoin="round"></path>
  <path class="fill" d="M17.25 22.5C18.4926 22.5 19.5 21.4926 19.5 20.25C19.5 19.0074 18.4926 18 17.25 18C16.0074 18 15 19.0074 15 20.25C15 21.4926 16.0074 22.5 17.25 22.5Z" fill="#1777E5"></path>
  <path d="M28.5 20.25H33" stroke="#1777E5" stroke-width="3" stroke-linecap="round" stroke-linejoin="round"></path>
  <path d="M31.8 28.5C31.007 29.8661 29.8691 31 28.5003 31.7882C27.1314 32.5764 25.5795 32.9913 24 32.9913C22.4204 32.9913 20.8685 32.5764 19.4996 31.7882C18.1308 31 16.9929 29.8661 16.2 28.5" stroke="#1777E5" stroke-width="3" stroke-linecap="round" stroke-linejoin="round"></path>
</svg>